<?xml version="1.0" encoding="utf-8"?>
<!-- Generator: Adobe Illustrator 16.0.0, SVG Export Plug-In . SVG Version: 6.00 Build 0)  -->
<!DOCTYPE svg PUBLIC "-//W3C//DTD SVG 1.1//EN" "http://www.w3.org/Graphics/SVG/1.1/DTD/svg11.dtd">
<svg version="1.1" id="Calque_1" xmlns="http://www.w3.org/2000/svg" xmlns:xlink="http://www.w3.org/1999/xlink" x="0px" y="0px"
	 width="584px" height="124.667px" viewBox="0 0 584 124.667" enable-background="new 0 0 584 124.667" xml:space="preserve">
<g>
	<g>
		<path d="M229.944,100.539c-0.937,0-1.765-0.232-2.483-0.701c-0.721-0.466-1.08-1.168-1.08-2.104V24.199
			c0-0.719,0.27-1.312,0.81-1.782c0.54-0.467,1.277-0.738,2.213-0.809h19.868c4.174,0,7.954,0.755,11.337,2.267
			s6.047,3.941,7.992,7.288c1.942,3.348,2.915,7.794,2.915,13.335v1.081c0,5.615-0.99,10.096-2.97,13.443
			c-1.98,3.347-4.68,5.777-8.098,7.288c-3.419,1.512-7.217,2.268-11.392,2.268h-15.549v29.155c0,0.937-0.378,1.639-1.134,2.104
			C231.618,100.306,230.809,100.539,229.944,100.539z M233.508,62.423h15.549c4.822,0,8.585-1.35,11.285-4.049
			c2.7-2.699,4.049-6.856,4.049-12.471v-1.296c0-5.614-1.35-9.753-4.049-12.417c-2.699-2.663-6.462-3.995-11.285-3.995h-15.549
			V62.423z"/>
		<path d="M324.534,100.648c-0.792,0-1.512-0.396-2.16-1.188c-0.647-0.79-1.151-1.62-1.512-2.483l-16.736-32.393h-13.713v33.149
			c0,0.937-0.378,1.639-1.134,2.104c-0.756,0.469-1.565,0.701-2.43,0.701c-0.936,0-1.765-0.232-2.483-0.701
			c-0.722-0.466-1.08-1.168-1.08-2.104V24.199c0-0.719,0.252-1.312,0.756-1.782c0.501-0.467,1.15-0.738,1.943-0.809h19.113
			c4.245,0,8.134,0.647,11.661,1.942c3.525,1.296,6.352,3.475,8.477,6.534c2.122,3.06,3.186,7.326,3.186,12.796
			c0,4.464-0.739,8.135-2.214,11.013c-1.476,2.879-3.493,5.094-6.047,6.641c-2.557,1.548-5.418,2.61-8.585,3.185l16.63,31.962
			c0.216,0.216,0.34,0.449,0.378,0.702c0.035,0.253,0.053,0.486,0.053,0.701c0,0.577-0.198,1.152-0.593,1.728
			c-0.397,0.577-0.919,1.025-1.565,1.35C325.83,100.486,325.183,100.648,324.534,100.648z M290.413,58.429h14.686
			c4.821,0,8.727-1.17,11.715-3.51c2.985-2.338,4.482-6.245,4.482-11.715c0-5.399-1.497-9.251-4.482-11.555
			c-2.988-2.302-6.894-3.454-11.715-3.454h-14.686V58.429z"/>
		<path d="M338.356,100.539c-0.577,0-1.188-0.124-1.836-0.377c-0.648-0.251-1.188-0.61-1.62-1.079s-0.648-0.99-0.648-1.567
			c0-0.286,0.036-0.539,0.108-0.755l22.568-73.317c0.286-0.864,0.825-1.493,1.619-1.891c0.79-0.394,1.656-0.593,2.591-0.593
			c1.008,0,1.927,0.216,2.755,0.648c0.826,0.431,1.35,1.043,1.565,1.835l22.46,73.317c0.071,0.216,0.109,0.433,0.109,0.648
			c0,0.577-0.218,1.099-0.648,1.565c-0.433,0.468-0.973,0.848-1.62,1.134c-0.648,0.289-1.334,0.431-2.053,0.431
			c-0.577,0-1.117-0.142-1.618-0.431c-0.507-0.286-0.831-0.757-0.973-1.405l-5.075-16.627h-29.803l-4.968,16.627
			c-0.215,0.648-0.577,1.119-1.078,1.405C339.687,100.397,339.075,100.539,338.356,100.539z M347.967,75.921h26.238l-13.066-43.515
			L347.967,75.921z"/>
		<path d="M419.989,101.187c-4.176,0-7.956-0.755-11.338-2.267c-3.385-1.512-6.066-3.958-8.045-7.341
			c-1.98-3.384-2.971-7.883-2.971-13.498V44.607c0-5.542,0.99-10.005,2.971-13.39c1.979-3.382,4.645-5.831,7.99-7.343
			c3.348-1.512,7.108-2.267,11.284-2.267c4.606,0,8.602,0.809,11.985,2.429c3.383,1.621,6.01,3.834,7.883,6.641
			c1.872,2.807,2.809,6.011,2.809,9.61c0,1.369-0.324,2.321-0.973,2.86c-0.648,0.541-1.512,0.81-2.591,0.81
			c-0.937,0-1.747-0.215-2.431-0.648c-0.684-0.431-1.063-1.114-1.134-2.051c-0.36-2.807-1.152-5.183-2.376-7.126
			c-1.224-1.944-2.915-3.419-5.075-4.427s-4.823-1.512-7.989-1.512c-4.824,0-8.567,1.332-11.231,3.995
			c-2.663,2.664-3.993,6.803-3.993,12.417v33.474c0,5.615,1.33,9.771,3.993,12.471c2.664,2.698,6.407,4.048,11.231,4.048
			c4.821,0,8.601-1.35,11.337-4.048c2.735-2.7,4.104-6.856,4.104-12.471V65.23h-14.468c-0.864,0-1.532-0.324-1.998-0.971
			c-0.469-0.648-0.702-1.366-0.702-2.159c0-0.719,0.233-1.405,0.702-2.053c0.466-0.647,1.134-0.971,1.998-0.971h18.896
			c0.863,0,1.527,0.269,1.995,0.81c0.469,0.541,0.704,1.207,0.704,1.998v16.197c0,5.615-1.01,10.114-3.023,13.498
			c-2.016,3.383-4.716,5.83-8.099,7.341C428.05,100.432,424.236,101.187,419.989,101.187z"/>
		<path d="M460.481,100.539c-0.937,0-1.765-0.232-2.484-0.701c-0.721-0.466-1.081-1.168-1.081-2.104V25.062
			c0-1.295,0.36-2.194,1.081-2.699c0.72-0.502,1.548-0.755,2.484-0.755c0.864,0,1.637,0.233,2.32,0.702
			c0.684,0.468,1.314,1.079,1.889,1.836c0.577,0.755,1.081,1.565,1.512,2.429l18.575,35.849l18.572-35.849
			c0.502-0.864,1.025-1.674,1.565-2.429c0.539-0.757,1.17-1.368,1.889-1.836c0.72-0.469,1.475-0.702,2.269-0.702
			c1.006,0,1.852,0.253,2.538,0.755c0.682,0.505,1.025,1.404,1.025,2.699v72.671c0,0.937-0.362,1.639-1.081,2.104
			c-0.72,0.469-1.548,0.701-2.482,0.701c-0.865,0-1.674-0.232-2.431-0.701c-0.755-0.466-1.134-1.168-1.134-2.104V37.048
			l-17.925,33.906c-0.431,0.792-0.901,1.369-1.403,1.729c-0.504,0.36-1.01,0.539-1.512,0.539c-0.433,0-0.901-0.162-1.402-0.485
			c-0.507-0.324-0.973-0.919-1.405-1.783l-17.815-34.23v61.009c0,0.937-0.38,1.639-1.135,2.104
			C462.153,100.306,461.346,100.539,460.481,100.539z"/>
		<path d="M527.104,100.539c-0.577,0-1.188-0.124-1.836-0.377c-0.646-0.251-1.188-0.61-1.618-1.079
			c-0.434-0.469-0.648-0.99-0.648-1.567c0-0.286,0.035-0.539,0.108-0.755l22.566-73.317c0.288-0.864,0.828-1.493,1.62-1.891
			c0.791-0.394,1.656-0.593,2.591-0.593c1.008,0,1.928,0.216,2.755,0.648c0.826,0.431,1.351,1.043,1.565,1.835l22.46,73.317
			c0.07,0.216,0.108,0.433,0.108,0.648c0,0.577-0.218,1.099-0.648,1.565c-0.433,0.468-0.972,0.848-1.62,1.134
			c-0.648,0.289-1.332,0.431-2.052,0.431c-0.577,0-1.116-0.142-1.618-0.431c-0.506-0.286-0.83-0.757-0.973-1.405l-5.074-16.627
			h-29.804l-4.966,16.627c-0.218,0.648-0.577,1.119-1.081,1.405C528.436,100.397,527.822,100.539,527.104,100.539z M536.714,75.921
			h26.24l-13.067-43.515L536.714,75.921z"/>
	</g>
	<g>
		<g>
			<path d="M87.596,117.386c-1.342,0-2.53-0.331-3.56-1.006c-1.034-0.668-1.548-1.674-1.548-3.017V7.957
				c0-1.031,0.387-1.881,1.161-2.554c0.774-0.67,1.831-1.057,3.172-1.161h28.48c5.984,0,11.401,1.083,16.252,3.251
				c4.848,2.166,8.667,5.649,11.453,10.447c2.786,4.798,4.181,11.171,4.181,19.115v1.548c0,8.049-1.42,14.472-4.258,19.27
				c-2.839,4.8-6.709,8.28-11.608,10.448c-4.902,2.168-10.347,3.25-16.33,3.25h-22.29v41.792c0,1.343-0.541,2.349-1.625,3.017
				C89.995,117.055,88.833,117.386,87.596,117.386z M92.703,62.749h22.29c6.912,0,12.305-1.935,16.174-5.804
				c3.87-3.869,5.804-9.829,5.804-17.877V37.21c0-8.048-1.934-13.981-5.804-17.8c-3.869-3.817-9.262-5.728-16.174-5.728h-22.29
				V62.749z"/>
		</g>
		<g>
			<path d="M65.129,4.758c1.342,0,2.53,0.334,3.561,1.007c1.032,0.669,1.548,1.675,1.548,3.018V114.19
				c0,1.029-0.387,1.882-1.162,2.553c-0.773,0.67-1.832,1.057-3.173,1.163h-28.48c-5.982,0-11.4-1.086-16.25-3.252
				c-4.85-2.167-8.668-5.647-11.455-10.447c-2.787-4.8-4.179-11.171-4.179-19.117v-1.548c0-8.048,1.42-14.472,4.256-19.271
				c2.839-4.797,6.708-8.28,11.609-10.447c4.902-2.167,10.346-3.25,16.329-3.25h22.288V8.783c0-1.343,0.542-2.349,1.625-3.018
				C62.73,5.092,63.891,4.758,65.129,4.758z M60.021,59.396H37.733c-6.912,0-12.305,1.935-16.174,5.804
				c-3.871,3.869-5.805,9.829-5.805,17.877v1.857c0,8.049,1.934,13.982,5.805,17.8c3.87,3.818,9.262,5.728,16.174,5.728h22.288
				V59.396z"/>
		</g>
	</g>
	<line fill="none" stroke="#000000" stroke-width="3" stroke-miterlimit="10" x1="184.5" y1="11.667" x2="184.5" y2="110.667"/>
</g>
</svg>
