<?xml version="1.0" encoding="utf-8"?>
<!-- Generator: Adobe Illustrator 16.0.0, SVG Export Plug-In . SVG Version: 6.00 Build 0)  -->
<!DOCTYPE svg PUBLIC "-//W3C//DTD SVG 1.1//EN" "http://www.w3.org/Graphics/SVG/1.1/DTD/svg11.dtd">
<svg version="1.1" id="Calque_1" xmlns="http://www.w3.org/2000/svg" xmlns:xlink="http://www.w3.org/1999/xlink" x="0px" y="0px"
	 width="600px" height="600px" viewBox="0 0 600 600" enable-background="new 0 0 600 600" xml:space="preserve">
<g>
	<circle fill="none" stroke="#000000" stroke-width="7" stroke-miterlimit="10" cx="295.556" cy="307.986" r="233.917"/>
	<circle fill="none" stroke="#000000" stroke-width="2" stroke-miterlimit="10" cx="295.556" cy="308.378" r="225.524"/>
	<g>
		<path d="M146.82,441.196c-0.824,0-1.553-0.205-2.185-0.618c-0.634-0.41-0.95-1.027-0.95-1.852v-64.695
			c0-0.633,0.237-1.154,0.712-1.567c0.475-0.411,1.124-0.649,1.947-0.712h17.48c3.672,0,6.998,0.664,9.975,1.994
			c2.976,1.33,5.32,3.468,7.03,6.412c1.71,2.945,2.565,6.857,2.565,11.732v0.951c0,4.939-0.872,8.882-2.613,11.827
			c-1.743,2.944-4.118,5.083-7.125,6.412c-3.009,1.33-6.35,1.995-10.022,1.995h-13.68v25.65c0,0.824-0.333,1.441-0.998,1.852
			C148.292,440.991,147.58,441.196,146.82,441.196z M149.955,407.661h13.68c4.242,0,7.553-1.188,9.928-3.563
			s3.563-6.032,3.563-10.972v-1.141c0-4.939-1.188-8.581-3.563-10.925c-2.375-2.343-5.686-3.515-9.928-3.515h-13.68V407.661z"/>
		<path d="M230.039,441.291c-0.697,0-1.33-0.348-1.9-1.045c-0.57-0.695-1.014-1.425-1.33-2.185l-14.725-28.5H200.02v29.165
			c0,0.824-0.333,1.441-0.998,1.852c-0.665,0.413-1.377,0.618-2.138,0.618c-0.824,0-1.553-0.205-2.185-0.618
			c-0.634-0.41-0.95-1.027-0.95-1.852v-64.695c0-0.633,0.221-1.154,0.665-1.567c0.442-0.411,1.013-0.649,1.71-0.712h16.815
			c3.736,0,7.156,0.569,10.26,1.709c3.103,1.141,5.589,3.057,7.458,5.748c1.867,2.692,2.803,6.445,2.803,11.258
			c0,3.928-0.65,7.157-1.948,9.689c-1.299,2.533-3.073,4.481-5.32,5.843c-2.249,1.362-4.767,2.296-7.553,2.802l14.63,28.121
			c0.19,0.189,0.3,0.396,0.332,0.617c0.031,0.223,0.048,0.428,0.048,0.617c0,0.508-0.175,1.014-0.522,1.52
			c-0.349,0.508-0.808,0.902-1.377,1.188C231.179,441.148,230.609,441.291,230.039,441.291z M200.02,404.146h12.92
			c4.242,0,7.679-1.029,10.307-3.088c2.627-2.057,3.943-5.494,3.943-10.307c0-4.75-1.315-8.139-3.943-10.166
			c-2.628-2.025-6.065-3.039-10.307-3.039h-12.92V404.146z"/>
		<path d="M242.199,441.196c-0.507,0-1.045-0.11-1.615-0.333c-0.57-0.221-1.045-0.537-1.425-0.949c-0.38-0.412-0.57-0.87-0.57-1.378
			c0-0.252,0.031-0.475,0.095-0.665l19.855-64.505c0.252-0.76,0.727-1.313,1.425-1.663c0.695-0.347,1.457-0.521,2.279-0.521
			c0.887,0,1.695,0.189,2.424,0.57c0.727,0.379,1.188,0.918,1.377,1.614l19.76,64.505c0.063,0.19,0.096,0.381,0.096,0.57
			c0,0.508-0.191,0.967-0.57,1.377c-0.381,0.413-0.855,0.746-1.426,0.998c-0.57,0.254-1.172,0.38-1.805,0.38
			c-0.508,0-0.982-0.126-1.424-0.38c-0.445-0.252-0.73-0.665-0.855-1.235l-4.465-14.63h-26.221l-4.37,14.63
			c-0.19,0.57-0.508,0.983-0.95,1.235C243.371,441.07,242.832,441.196,242.199,441.196z M250.654,419.536h23.085l-11.496-38.284
			L250.654,419.536z"/>
		<path d="M314.02,441.766c-3.674,0-7-0.664-9.975-1.994c-2.979-1.33-5.337-3.482-7.078-6.46c-1.743-2.977-2.613-6.935-2.613-11.875
			v-29.45c0-4.876,0.87-8.803,2.613-11.78c1.74-2.976,4.085-5.13,7.029-6.46c2.945-1.33,6.254-1.994,9.928-1.994
			c4.053,0,7.568,0.712,10.545,2.137c2.977,1.426,5.287,3.373,6.936,5.843c1.646,2.47,2.471,5.288,2.471,8.455
			c0,1.204-0.285,2.042-0.855,2.517c-0.57,0.476-1.33,0.713-2.279,0.713c-0.824,0-1.537-0.189-2.139-0.57
			c-0.602-0.379-0.936-0.98-0.998-1.805c-0.316-2.47-1.014-4.56-2.09-6.27s-2.564-3.008-4.465-3.895s-4.244-1.33-7.029-1.33
			c-4.244,0-7.537,1.172-9.881,3.515c-2.344,2.344-3.514,5.985-3.514,10.925v29.45c0,4.94,1.17,8.597,3.514,10.972
			s5.637,3.563,9.881,3.563c4.242,0,7.566-1.188,9.975-3.563c2.406-2.375,3.609-6.031,3.609-10.972v-11.306h-12.729
			c-0.76,0-1.348-0.285-1.758-0.854c-0.412-0.57-0.617-1.202-0.617-1.899c0-0.633,0.205-1.236,0.617-1.806
			c0.41-0.569,0.998-0.854,1.758-0.854H331.5c0.76,0,1.344,0.236,1.756,0.712s0.619,1.062,0.619,1.758v14.25
			c0,4.94-0.889,8.898-2.66,11.875c-1.773,2.978-4.148,5.13-7.125,6.46C321.111,441.102,317.756,441.766,314.02,441.766z"/>
		<path d="M349.645,441.196c-0.824,0-1.553-0.205-2.186-0.618c-0.635-0.41-0.951-1.027-0.951-1.852v-63.936
			c0-1.14,0.316-1.931,0.951-2.375c0.633-0.441,1.361-0.664,2.186-0.664c0.76,0,1.439,0.205,2.041,0.617s1.156,0.949,1.662,1.615
			c0.508,0.664,0.951,1.377,1.33,2.137l16.342,31.54l16.34-31.54c0.441-0.76,0.902-1.473,1.377-2.137
			c0.475-0.666,1.029-1.203,1.662-1.615s1.297-0.617,1.996-0.617c0.885,0,1.629,0.223,2.232,0.664
			c0.6,0.444,0.902,1.235,0.902,2.375v63.936c0,0.824-0.318,1.441-0.951,1.852c-0.633,0.413-1.361,0.618-2.184,0.618
			c-0.762,0-1.473-0.205-2.139-0.618c-0.664-0.41-0.998-1.027-0.998-1.852v-53.391l-15.77,29.83
			c-0.379,0.697-0.793,1.204-1.234,1.521c-0.443,0.317-0.889,0.475-1.33,0.475c-0.381,0-0.793-0.143-1.234-0.427
			c-0.445-0.285-0.855-0.809-1.236-1.568l-15.674-30.115v53.676c0,0.824-0.334,1.441-0.998,1.852
			C351.115,440.991,350.404,441.196,349.645,441.196z"/>
		<path d="M408.258,441.196c-0.508,0-1.045-0.11-1.615-0.333c-0.568-0.221-1.045-0.537-1.424-0.949
			c-0.381-0.412-0.57-0.87-0.57-1.378c0-0.252,0.031-0.475,0.096-0.665l19.854-64.505c0.254-0.76,0.729-1.313,1.426-1.663
			c0.695-0.347,1.457-0.521,2.279-0.521c0.887,0,1.695,0.189,2.424,0.57c0.727,0.379,1.188,0.918,1.377,1.614l19.76,64.505
			c0.063,0.19,0.096,0.381,0.096,0.57c0,0.508-0.191,0.967-0.57,1.377c-0.381,0.413-0.855,0.746-1.426,0.998
			c-0.57,0.254-1.172,0.38-1.805,0.38c-0.508,0-0.982-0.126-1.424-0.38c-0.445-0.252-0.73-0.665-0.855-1.235l-4.465-14.63h-26.221
			l-4.369,14.63c-0.191,0.57-0.508,0.983-0.951,1.235C409.43,441.07,408.891,441.196,408.258,441.196z M416.713,419.536h23.086
			l-11.496-38.284L416.713,419.536z"/>
	</g>
	<g>
		<g>
			<path d="M312.393,322.602c-2.078,0-3.918-0.516-5.512-1.557c-1.6-1.037-2.396-2.596-2.396-4.674V153.157
				c0-1.595,0.598-2.913,1.797-3.954c1.199-1.037,2.834-1.636,4.912-1.798h44.1c9.266,0,17.654,1.678,25.166,5.033
				c7.508,3.355,13.42,8.748,17.734,16.177c4.314,7.43,6.473,17.298,6.473,29.6v2.396c0,12.463-2.199,22.409-6.592,29.838
				c-4.396,7.43-10.389,12.823-17.975,16.178c-7.592,3.355-16.021,5.033-25.285,5.033h-34.514v64.71
				c0,2.078-0.838,3.637-2.516,4.674C316.107,322.086,314.309,322.602,312.393,322.602z M320.301,238h34.514
				c10.703,0,19.053-2.996,25.045-8.988c5.99-5.992,8.986-15.219,8.986-27.682v-2.875c0-12.463-2.996-21.649-8.986-27.562
				c-5.992-5.909-14.342-8.868-25.045-8.868h-34.514V238z"/>
		</g>
		<g>
			<path d="M277.606,148.205c2.078,0,3.917,0.517,5.513,1.558c1.599,1.037,2.396,2.595,2.396,4.673V317.65
				c0,1.596-0.6,2.914-1.798,3.953s-2.835,1.637-4.913,1.799h-44.1c-9.264,0-17.653-1.678-25.165-5.033
				c-7.509-3.355-13.422-8.748-17.736-16.177c-4.314-7.43-6.471-17.298-6.471-29.6v-2.396c0-12.463,2.198-22.409,6.591-29.839
				c4.396-7.43,10.388-12.822,17.976-16.178c7.59-3.355,16.02-5.033,25.285-5.033h34.512v-64.711c0-2.078,0.839-3.636,2.517-4.673
				C273.891,148.722,275.688,148.205,277.606,148.205z M269.697,232.808h-34.512c-10.703,0-19.054,2.996-25.045,8.988
				s-8.987,15.219-8.987,27.682v2.875c0,12.463,2.996,21.649,8.987,27.562c5.992,5.909,14.342,8.866,25.045,8.866h34.512V232.808z"
				/>
		</g>
	</g>
</g>
</svg>
