<?xml version="1.0" encoding="utf-8"?>
<!-- Generator: Adobe Illustrator 16.0.0, SVG Export Plug-In . SVG Version: 6.00 Build 0)  -->
<!DOCTYPE svg PUBLIC "-//W3C//DTD SVG 1.1//EN" "http://www.w3.org/Graphics/SVG/1.1/DTD/svg11.dtd">
<svg version="1.1" id="Calque_1" xmlns="http://www.w3.org/2000/svg" xmlns:xlink="http://www.w3.org/1999/xlink" x="0px" y="0px"
	 width="30px" height="30px" viewBox="0 0 30 30" enable-background="new 0 0 30 30" xml:space="preserve">
<g>
	<circle fill="#FFFFFF" stroke="#000000" stroke-width="0.5" stroke-miterlimit="10" cx="14.825" cy="15.254" r="14.085"/>
	<circle fill="none" stroke="#000000" stroke-width="0.25" stroke-miterlimit="10" cx="14.825" cy="15.279" r="13.58"/>
	<g>
		<g>
			<path d="M16.535,23.844c-0.204,0-0.384-0.049-0.542-0.153c-0.157-0.103-0.236-0.255-0.236-0.459V7.177
				c0-0.159,0.061-0.288,0.177-0.392c0.119-0.102,0.279-0.16,0.483-0.175h4.338c0.912,0,1.737,0.165,2.477,0.495
				c0.74,0.329,1.32,0.859,1.742,1.59c0.426,0.731,0.639,1.703,0.639,2.913v0.236c0,1.226-0.22,2.203-0.647,2.935
				c-0.435,0.732-1.021,1.262-1.77,1.592c-0.747,0.33-1.576,0.496-2.487,0.496h-3.393v6.364c0,0.204-0.084,0.356-0.249,0.459
				C16.9,23.795,16.723,23.844,16.535,23.844z M17.315,15.521h3.393c1.053,0,1.876-0.294,2.465-0.884s0.883-1.497,0.883-2.723V11.63
				c0-1.226-0.294-2.128-0.883-2.71c-0.589-0.582-1.412-0.873-2.465-0.873h-3.393V15.521z"/>
		</g>
		<g>
			<path d="M13.114,6.688c0.203,0,0.385,0.052,0.542,0.153c0.158,0.102,0.237,0.255,0.237,0.46v16.057
				c0,0.156-0.062,0.287-0.18,0.388c-0.115,0.101-0.277,0.161-0.481,0.177H8.894c-0.912,0-1.737-0.167-2.475-0.494
				c-0.738-0.331-1.321-0.86-1.746-1.592c-0.424-0.731-0.637-1.7-0.637-2.912v-0.235c0-1.226,0.218-2.203,0.649-2.936
				c0.433-0.731,1.021-1.261,1.768-1.592c0.748-0.331,1.575-0.495,2.487-0.495h3.394V7.301c0-0.205,0.083-0.358,0.248-0.46
				C12.748,6.74,12.925,6.688,13.114,6.688z M12.334,15.01H8.94c-1.052,0-1.875,0.296-2.464,0.884
				c-0.59,0.592-0.884,1.5-0.884,2.724v0.283c0,1.227,0.293,2.131,0.884,2.712c0.589,0.581,1.412,0.871,2.464,0.871h3.394V15.01z"/>
		</g>
	</g>
</g>
</svg>
